<mxfile host="app.diagrams.net" modified="2024-03-01T20:45:17.507Z" agent="Mozilla/5.0 (Windows NT 10.0; Win64; x64) AppleWebKit/537.36 (KHTML, like Gecko) Chrome/122.0.0.0 Safari/537.36" etag="O0NTBWHufkrBPmKvdPlI" version="24.0.0" type="github">
  <diagram id="R2lEEEUBdFMjLlhIrx00" name="Page-1">
    <mxGraphModel dx="1834" dy="1266" grid="1" gridSize="10" guides="1" tooltips="1" connect="1" arrows="1" fold="1" page="0" pageScale="1" pageWidth="850" pageHeight="1100" math="0" shadow="0" extFonts="Permanent Marker^https://fonts.googleapis.com/css?family=Permanent+Marker">
      <root>
        <mxCell id="0" />
        <mxCell id="1" parent="0" />
        <mxCell id="jDSCI7R7q78hUjqy5p4C-5" value="" style="edgeStyle=orthogonalEdgeStyle;rounded=0;orthogonalLoop=1;jettySize=auto;html=1;" edge="1" parent="1" source="jDSCI7R7q78hUjqy5p4C-1" target="jDSCI7R7q78hUjqy5p4C-4">
          <mxGeometry relative="1" as="geometry" />
        </mxCell>
        <mxCell id="jDSCI7R7q78hUjqy5p4C-16" style="edgeStyle=orthogonalEdgeStyle;rounded=0;orthogonalLoop=1;jettySize=auto;html=1;exitX=1;exitY=0.5;exitDx=0;exitDy=0;entryX=0;entryY=0.5;entryDx=0;entryDy=0;" edge="1" parent="1" source="jDSCI7R7q78hUjqy5p4C-1" target="jDSCI7R7q78hUjqy5p4C-6">
          <mxGeometry relative="1" as="geometry" />
        </mxCell>
        <mxCell id="jDSCI7R7q78hUjqy5p4C-1" value="riviera" style="rounded=0;whiteSpace=wrap;html=1;fillColor=#f8cecc;strokeColor=#b85450;" vertex="1" parent="1">
          <mxGeometry x="-40" y="-20" width="120" height="60" as="geometry" />
        </mxCell>
        <mxCell id="jDSCI7R7q78hUjqy5p4C-2" value="hc fac 1" style="rounded=0;whiteSpace=wrap;html=1;" vertex="1" parent="1">
          <mxGeometry x="210" y="110" width="120" height="60" as="geometry" />
        </mxCell>
        <mxCell id="jDSCI7R7q78hUjqy5p4C-4" value="contact staff 1" style="rounded=0;whiteSpace=wrap;html=1;" vertex="1" parent="1">
          <mxGeometry x="-290" y="-20" width="120" height="60" as="geometry" />
        </mxCell>
        <mxCell id="jDSCI7R7q78hUjqy5p4C-6" value="hc fac 2" style="rounded=0;whiteSpace=wrap;html=1;" vertex="1" parent="1">
          <mxGeometry x="210" y="-20" width="120" height="60" as="geometry" />
        </mxCell>
        <mxCell id="jDSCI7R7q78hUjqy5p4C-8" value="provider A" style="ellipse;whiteSpace=wrap;html=1;aspect=fixed;" vertex="1" parent="1">
          <mxGeometry x="490" y="110" width="80" height="80" as="geometry" />
        </mxCell>
        <mxCell id="jDSCI7R7q78hUjqy5p4C-10" style="edgeStyle=orthogonalEdgeStyle;rounded=0;orthogonalLoop=1;jettySize=auto;html=1;entryX=1;entryY=0.5;entryDx=0;entryDy=0;" edge="1" parent="1" source="jDSCI7R7q78hUjqy5p4C-9" target="jDSCI7R7q78hUjqy5p4C-6">
          <mxGeometry relative="1" as="geometry" />
        </mxCell>
        <mxCell id="jDSCI7R7q78hUjqy5p4C-9" value="provider B" style="ellipse;whiteSpace=wrap;html=1;aspect=fixed;" vertex="1" parent="1">
          <mxGeometry x="480" y="-30" width="80" height="80" as="geometry" />
        </mxCell>
        <mxCell id="jDSCI7R7q78hUjqy5p4C-15" style="edgeStyle=orthogonalEdgeStyle;rounded=0;orthogonalLoop=1;jettySize=auto;html=1;entryX=1;entryY=0.5;entryDx=0;entryDy=0;" edge="1" parent="1" source="jDSCI7R7q78hUjqy5p4C-12" target="jDSCI7R7q78hUjqy5p4C-14">
          <mxGeometry relative="1" as="geometry" />
        </mxCell>
        <mxCell id="jDSCI7R7q78hUjqy5p4C-18" style="edgeStyle=orthogonalEdgeStyle;rounded=0;orthogonalLoop=1;jettySize=auto;html=1;entryX=0;entryY=0.5;entryDx=0;entryDy=0;" edge="1" parent="1" source="jDSCI7R7q78hUjqy5p4C-12" target="jDSCI7R7q78hUjqy5p4C-2">
          <mxGeometry relative="1" as="geometry">
            <Array as="points">
              <mxPoint x="20" y="150" />
              <mxPoint x="210" y="150" />
            </Array>
          </mxGeometry>
        </mxCell>
        <mxCell id="jDSCI7R7q78hUjqy5p4C-12" value="imh" style="rounded=0;whiteSpace=wrap;html=1;fillColor=#f8cecc;strokeColor=#b85450;" vertex="1" parent="1">
          <mxGeometry x="-40" y="210" width="120" height="60" as="geometry" />
        </mxCell>
        <mxCell id="jDSCI7R7q78hUjqy5p4C-14" value="contact staff 2" style="rounded=0;whiteSpace=wrap;html=1;" vertex="1" parent="1">
          <mxGeometry x="-290" y="210" width="120" height="60" as="geometry" />
        </mxCell>
        <mxCell id="jDSCI7R7q78hUjqy5p4C-17" style="edgeStyle=orthogonalEdgeStyle;rounded=0;orthogonalLoop=1;jettySize=auto;html=1;entryX=0;entryY=0.617;entryDx=0;entryDy=0;entryPerimeter=0;" edge="1" parent="1" source="jDSCI7R7q78hUjqy5p4C-1" target="jDSCI7R7q78hUjqy5p4C-2">
          <mxGeometry relative="1" as="geometry">
            <Array as="points">
              <mxPoint x="20" y="140" />
              <mxPoint x="210" y="140" />
            </Array>
          </mxGeometry>
        </mxCell>
        <mxCell id="jDSCI7R7q78hUjqy5p4C-19" style="edgeStyle=orthogonalEdgeStyle;rounded=0;orthogonalLoop=1;jettySize=auto;html=1;entryX=1.008;entryY=0.617;entryDx=0;entryDy=0;entryPerimeter=0;" edge="1" parent="1" source="jDSCI7R7q78hUjqy5p4C-8" target="jDSCI7R7q78hUjqy5p4C-2">
          <mxGeometry relative="1" as="geometry" />
        </mxCell>
      </root>
    </mxGraphModel>
  </diagram>
</mxfile>
